<svg width="28" height="28" viewBox="0 0 28 28" fill="none" xmlns="http://www.w3.org/2000/svg">
<path d="M22.0962 25.375H5.90385C4.79928 25.375 3.90385 24.4796 3.90385 23.375V10.5795L14 2.625L24.0962 10.5795V23.375C24.0962 24.4796 23.2007 25.375 22.0962 25.375Z" fill="white"/>
<path fill-rule="evenodd" clip-rule="evenodd" d="M14 1.98846L27.4344 12.5732L26.8156 13.3587L24.5961 11.61V23.375C24.5961 24.7557 23.4769 25.875 22.0961 25.875H5.90383C4.52312 25.875 3.40383 24.7557 3.40383 23.375V11.61L1.18442 13.3587L0.565552 12.5732L14 1.98846ZM4.40383 10.8222V23.375C4.40383 24.2034 5.07541 24.875 5.90383 24.875H22.0961C22.9246 24.875 23.5961 24.2034 23.5961 23.375V10.8222L14 3.26155L4.40383 10.8222Z" fill="#66B7B0"/>
<path fill-rule="evenodd" clip-rule="evenodd" d="M14.5 17.125V21H13.5V17.125H9.625V16.125H13.5V12.25H14.5V16.125H18.375V17.125H14.5Z" fill="#00877B"/>
</svg>
