<svg width="16" height="16" viewBox="0 0 16 16" fill="none" xmlns="http://www.w3.org/2000/svg">
<path fill-rule="evenodd" clip-rule="evenodd" d="M13.0625 13.6864L16 16V7C16 5.89543 15.1046 5 14 5H7C5.89543 5 5 5.89543 5 7V11.6864C5 12.791 5.89543 13.6864 7 13.6864H13.0625ZM14.8 13.5274V7C14.8 6.55817 14.4418 6.2 14 6.2H7C6.55817 6.2 6.2 6.55817 6.2 7V11.6864C6.2 12.1283 6.55817 12.4864 7 12.4864H13.4783L14.8 13.5274Z" fill="#ACADB8"/>
<path fill-rule="evenodd" clip-rule="evenodd" d="M11.5 2.5C11.5 1.11929 10.3807 0 9 0H2.5C1.11929 0 0 1.11929 0 2.5V10.6056L2.87608 8.07627H4.5V7.07627H2.49892L1 8.39445V2.5C1 1.67157 1.67157 1 2.5 1H9C9.82843 1 10.5 1.67157 10.5 2.5V3.25H11.5V2.5Z" fill="#ACADB8"/>
<path d="M8.5 9.25C8.5 9.66421 8.16421 10 7.75 10C7.33579 10 7 9.66421 7 9.25C7 8.83579 7.33579 8.5 7.75 8.5C8.16421 8.5 8.5 8.83579 8.5 9.25Z" fill="#ACADB8"/>
<path d="M11.25 9.25C11.25 9.66421 10.9142 10 10.5 10C10.0858 10 9.75 9.66421 9.75 9.25C9.75 8.83579 10.0858 8.5 10.5 8.5C10.9142 8.5 11.25 8.83579 11.25 9.25Z" fill="#ACADB8"/>
<path d="M14 9.25C14 9.66421 13.6642 10 13.25 10C12.8358 10 12.5 9.66421 12.5 9.25C12.5 8.83579 12.8358 8.5 13.25 8.5C13.6642 8.5 14 8.83579 14 9.25Z" fill="#ACADB8"/>
</svg>
