<svg width="16" height="16" viewBox="0 0 16 16" fill="none" xmlns="http://www.w3.org/2000/svg">
<path fill-rule="evenodd" clip-rule="evenodd" d="M1.7 1.7V7.8H6.3V1.7H1.7ZM1.5 0.5C0.947715 0.5 0.5 0.947715 0.5 1.5V8C0.5 8.55229 0.947715 9 1.5 9H6.5C7.05228 9 7.5 8.55229 7.5 8V1.5C7.5 0.947715 7.05228 0.5 6.5 0.5H1.5Z" fill="#ACADB8"/>
<path fill-rule="evenodd" clip-rule="evenodd" d="M14.5 1.3H10C9.88954 1.3 9.8 1.38954 9.8 1.5V6C9.8 6.11046 9.88954 6.2 10 6.2H14.5C14.6105 6.2 14.7 6.11046 14.7 6V1.5C14.7 1.38954 14.6105 1.3 14.5 1.3ZM10 0.5C9.44772 0.5 9 0.947715 9 1.5V6C9 6.55228 9.44772 7 10 7H14.5C15.0523 7 15.5 6.55228 15.5 6V1.5C15.5 0.947715 15.0523 0.5 14.5 0.5H10Z" fill="#ACADB8"/>
<path fill-rule="evenodd" clip-rule="evenodd" d="M14.5 9.3H10C9.88954 9.3 9.8 9.38954 9.8 9.5V14.5C9.8 14.6105 9.88954 14.7 10 14.7H14.5C14.6105 14.7 14.7 14.6105 14.7 14.5V9.5C14.7 9.38954 14.6105 9.3 14.5 9.3ZM10 8.5C9.44772 8.5 9 8.94772 9 9.5V14.5C9 15.0523 9.44772 15.5 10 15.5H14.5C15.0523 15.5 15.5 15.0523 15.5 14.5V9.5C15.5 8.94772 15.0523 8.5 14.5 8.5H10Z" fill="#ACADB8"/>
<path fill-rule="evenodd" clip-rule="evenodd" d="M6.5 11.8H1.5C1.38954 11.8 1.3 11.8895 1.3 12V14.5C1.3 14.6105 1.38954 14.7 1.5 14.7H6.5C6.61046 14.7 6.7 14.6105 6.7 14.5V12C6.7 11.8895 6.61046 11.8 6.5 11.8ZM1.5 11C0.947715 11 0.5 11.4477 0.5 12V14.5C0.5 15.0523 0.947715 15.5 1.5 15.5H6.5C7.05228 15.5 7.5 15.0523 7.5 14.5V12C7.5 11.4477 7.05228 11 6.5 11H1.5Z" fill="#ACADB8"/>
</svg>
