<svg width="28" height="28" viewBox="0 0 28 28" fill="none" xmlns="http://www.w3.org/2000/svg">
<path fill-rule="evenodd" clip-rule="evenodd" d="M7.4375 4C5.05577 4 3.125 5.93077 3.125 8.3125C3.125 10.6942 5.05577 12.625 7.4375 12.625V13.625C4.50349 13.625 2.125 11.2465 2.125 8.3125C2.125 5.37849 4.50349 3 7.4375 3C9.58123 3 11.4274 4.26973 12.2668 6.096L11.3582 6.51365C10.6758 5.02912 9.17632 4 7.4375 4Z" fill="#66B7B0"/>
<path fill-rule="evenodd" clip-rule="evenodd" d="M20.5625 4C22.9442 4 24.875 5.93077 24.875 8.3125C24.875 10.6942 22.9442 12.625 20.5625 12.625V13.625C23.4965 13.625 25.875 11.2465 25.875 8.3125C25.875 5.37849 23.4965 3 20.5625 3C18.4188 3 16.5726 4.26973 15.7332 6.096L16.6418 6.51365C17.3242 5.02912 18.8237 4 20.5625 4Z" fill="#66B7B0"/>
<path fill-rule="evenodd" clip-rule="evenodd" d="M7 13.625C3.78352 13.625 1.375 15.6933 1.375 18.025V22.625C1.375 22.9011 1.59886 23.125 1.875 23.125H7V24.125H1.875C1.04657 24.125 0.375 23.4534 0.375 22.625V18.025C0.375 14.9443 3.451 12.625 7 12.625C8.26215 12.625 9.62346 12.8 10.7123 13.3108L10.2877 14.2161C9.38778 13.794 8.19342 13.625 7 13.625Z" fill="#66B7B0"/>
<path fill-rule="evenodd" clip-rule="evenodd" d="M21 13.625C24.2165 13.625 26.625 15.6933 26.625 18.025V22.625C26.625 22.9011 26.4011 23.125 26.125 23.125H21V24.125H26.125C26.9534 24.125 27.625 23.4534 27.625 22.625V18.025C27.625 14.9443 24.549 12.625 21 12.625C19.7378 12.625 18.3765 12.8 17.2877 13.3108L17.7123 14.2161C18.6122 13.794 19.8066 13.625 21 13.625Z" fill="#66B7B0"/>
<path d="M19.25 10.5C19.25 13.3995 16.8995 15.75 14 15.75C11.1005 15.75 8.75 13.3995 8.75 10.5C8.75 7.60051 11.1005 5.25 14 5.25C16.8995 5.25 19.25 7.60051 19.25 10.5Z" fill="white"/>
<path fill-rule="evenodd" clip-rule="evenodd" d="M14 14.75C16.3472 14.75 18.25 12.8472 18.25 10.5C18.25 8.15279 16.3472 6.25 14 6.25C11.6528 6.25 9.75 8.15279 9.75 10.5C9.75 12.8472 11.6528 14.75 14 14.75ZM14 15.75C16.8995 15.75 19.25 13.3995 19.25 10.5C19.25 7.60051 16.8995 5.25 14 5.25C11.1005 5.25 8.75 7.60051 8.75 10.5C8.75 13.3995 11.1005 15.75 14 15.75Z" fill="#00877B"/>
<path d="M14 15.75C10.134 15.75 7 18.1266 7 21.0583V26.125C7 26.6773 7.44772 27.125 8 27.125H20C20.5523 27.125 21 26.6773 21 26.125V21.0583C21 18.1266 17.866 15.75 14 15.75Z" fill="white"/>
<path fill-rule="evenodd" clip-rule="evenodd" d="M9.35237 17.7032C8.18058 18.5918 7.5 19.7828 7.5 21.0583V26.125C7.5 26.4011 7.72386 26.625 8 26.625H20C20.2761 26.625 20.5 26.4011 20.5 26.125V21.0583C20.5 19.7828 19.8194 18.5918 18.6476 17.7032C17.4755 16.8143 15.834 16.25 14 16.25C12.166 16.25 10.5245 16.8143 9.35237 17.7032ZM8.74813 16.9064C10.1095 15.874 11.968 15.25 14 15.25C16.032 15.25 17.8905 15.874 19.2519 16.9064C20.6136 17.939 21.5 19.4022 21.5 21.0583V26.125C21.5 26.9534 20.8284 27.625 20 27.625H8C7.17157 27.625 6.5 26.9534 6.5 26.125V21.0583C6.5 19.4022 7.38642 17.939 8.74813 16.9064Z" fill="#00877B"/>
</svg>
