<svg width="16" height="16" viewBox="0 0 16 16" fill="none" xmlns="http://www.w3.org/2000/svg">
<g clip-path="url(#clip0)">
<path fill-rule="evenodd" clip-rule="evenodd" d="M4.25 2.5C3.00736 2.5 2 3.50736 2 4.75C2 5.99264 3.00736 7 4.25 7V8C2.45507 8 1 6.54493 1 4.75C1 2.95507 2.45507 1.5 4.25 1.5C5.56176 1.5 6.69096 2.27712 7.20431 3.39393L6.29569 3.81158C5.93943 3.03651 5.15685 2.5 4.25 2.5Z" fill="#ACADB8"/>
<path fill-rule="evenodd" clip-rule="evenodd" d="M11.75 2.5C12.9926 2.5 14 3.50736 14 4.75C14 5.99264 12.9926 7 11.75 7V8C13.5449 8 15 6.54493 15 4.75C15 2.95507 13.5449 1.5 11.75 1.5C10.4382 1.5 9.30904 2.27712 8.79569 3.39393L9.70431 3.81158C10.0606 3.03651 10.8432 2.5 11.75 2.5Z" fill="#ACADB8"/>
<path fill-rule="evenodd" clip-rule="evenodd" d="M4 8C2.23326 8 1 9.12809 1 10.3V13H4V14H0V10.3C0 8.37911 1.90074 7 4 7C4.73596 7 5.54963 7.1013 6.21233 7.41215L5.78767 8.3175C5.31394 8.09529 4.66723 8 4 8Z" fill="#ACADB8"/>
<path fill-rule="evenodd" clip-rule="evenodd" d="M12 8C13.7667 8 15 9.12809 15 10.3V13H12V14H16V10.3C16 8.37911 14.0993 7 12 7C11.264 7 10.4504 7.1013 9.78767 7.41215L10.2123 8.3175C10.6861 8.09529 11.3328 8 12 8Z" fill="#ACADB8"/>
<path fill-rule="evenodd" clip-rule="evenodd" d="M8 7.8C8.99411 7.8 9.8 6.99411 9.8 6C9.8 5.00589 8.99411 4.2 8 4.2C7.00589 4.2 6.2 5.00589 6.2 6C6.2 6.99411 7.00589 7.8 8 7.8ZM8 9C9.65685 9 11 7.65685 11 6C11 4.34315 9.65685 3 8 3C6.34315 3 5 4.34315 5 6C5 7.65685 6.34315 9 8 9Z" fill="#ACADB8"/>
<path fill-rule="evenodd" clip-rule="evenodd" d="M5.53414 10.3665C4.92424 10.8291 4.60002 11.4241 4.60002 12.0334V14.9H11.4V12.0334C11.4 11.4241 11.0758 10.8291 10.4659 10.3665C9.8556 9.90373 8.98577 9.60002 8.00002 9.60002C7.01428 9.60002 6.14445 9.90373 5.53414 10.3665ZM4.80905 9.41039C5.64646 8.77535 6.77663 8.40002 8.00002 8.40002C9.22342 8.40002 10.3536 8.77535 11.191 9.41039C12.0288 10.0457 12.6 10.9674 12.6 12.0334V16.1H3.40002V12.0334C3.40002 10.9674 3.97124 10.0457 4.80905 9.41039Z" fill="#ACADB8"/>
</g>
<defs>
<clipPath id="clip0">
<rect width="16" height="16" fill="white"/>
</clipPath>
</defs>
</svg>
