<svg width="16" height="16" viewBox="0 0 16 16" fill="none" xmlns="http://www.w3.org/2000/svg">
<path fill-rule="evenodd" clip-rule="evenodd" d="M8.00001 0.5C8.1946 0.5 8.37153 0.612905 8.45349 0.7894L10.4612 5.11251L15.1931 5.686C15.3863 5.70942 15.5483 5.84279 15.6085 6.02786C15.6686 6.21294 15.6159 6.41609 15.4734 6.54858L11.9822 9.79391L12.8991 14.4715C12.9365 14.6624 12.8597 14.8578 12.7023 14.9721C12.5449 15.0865 12.3354 15.0992 12.1653 15.0046L8.00001 12.6872L3.83471 15.0046C3.66465 15.0992 3.45516 15.0865 3.29772 14.9721C3.14029 14.8578 3.06352 14.6624 3.10095 14.4715L4.01777 9.79391L0.526655 6.54858C0.384128 6.41609 0.33142 6.21294 0.391554 6.02786C0.451688 5.84279 0.613739 5.70942 0.806924 5.686L5.53885 5.11251L7.54652 0.7894C7.62849 0.612905 7.80541 0.5 8.00001 0.5ZM8.00001 2.18708L6.32865 5.786C6.25579 5.94288 6.10703 6.05096 5.93532 6.07177L1.99606 6.5492L4.90236 9.25089C5.02905 9.36865 5.08587 9.54353 5.0526 9.71327L4.28937 13.6073L7.75692 11.6781C7.90807 11.594 8.09195 11.594 8.24309 11.6781L11.7106 13.6073L10.9474 9.71327C10.9141 9.54353 10.971 9.36865 11.0976 9.25089L14.0039 6.5492L10.0647 6.07177C9.89298 6.05096 9.74422 5.94288 9.67137 5.786L8.00001 2.18708Z" fill="#ACADB8"/>
</svg>
