<svg width="28" height="28" viewBox="0 0 28 28" fill="none" xmlns="http://www.w3.org/2000/svg">
<path fill-rule="evenodd" clip-rule="evenodd" d="M5.375 3.5625C5.09886 3.5625 4.875 3.78636 4.875 4.0625V5.6875H3.875V4.0625C3.875 3.23407 4.54657 2.5625 5.375 2.5625H21.75C22.5784 2.5625 23.25 3.23407 23.25 4.0625V23.5C23.25 24.3284 22.5784 25 21.75 25H19.6875V24H21.75C22.0261 24 22.25 23.7761 22.25 23.5V4.0625C22.25 3.78636 22.0261 3.5625 21.75 3.5625H5.375Z" fill="#66B7B0"/>
<path fill-rule="evenodd" clip-rule="evenodd" d="M8 1.375C7.72386 1.375 7.5 1.59886 7.5 1.875V3.5H6.5V1.875C6.5 1.04657 7.17157 0.375 8 0.375H24.375C25.2034 0.375 25.875 1.04657 25.875 1.875V20.4375C25.875 21.2659 25.2034 21.9375 24.375 21.9375H22.75V20.9375H24.375C24.6511 20.9375 24.875 20.7136 24.875 20.4375V1.875C24.875 1.59886 24.6511 1.375 24.375 1.375H8Z" fill="#66B7B0"/>
<path d="M20.125 26.5625V12.6454C20.125 12.3914 20.0283 12.1469 19.8545 11.9615L13.8588 5.56606C13.6698 5.36441 13.4057 5.25 13.1293 5.25H2.75C2.19772 5.25 1.75 5.69772 1.75 6.25V26.5625C1.75 27.1148 2.19772 27.5625 2.75 27.5625H19.125C19.6773 27.5625 20.125 27.1148 20.125 26.5625Z" fill="white"/>
<path fill-rule="evenodd" clip-rule="evenodd" d="M13.8588 5.56606C13.6698 5.36441 13.4057 5.25 13.1293 5.25H2.75C2.19772 5.25 1.75 5.69772 1.75 6.25V26.5625C1.75 27.1148 2.19772 27.5625 2.75 27.5625H19.125C19.6773 27.5625 20.125 27.1148 20.125 26.5625V12.6454C20.125 12.3914 20.0283 12.1469 19.8545 11.9615L13.8588 5.56606ZM19.125 26.5625L19.125 12.6454L13.1293 6.25L2.75 6.25V26.5625H19.125Z" fill="#00877B"/>
<path fill-rule="evenodd" clip-rule="evenodd" d="M13.0625 6.125H14.0625V11.75H19.25V12.75H13.0625V6.125Z" fill="#00877B"/>
</svg>
