<svg width="16" height="16" viewBox="0 0 16 16" fill="none" xmlns="http://www.w3.org/2000/svg">
<path fill-rule="evenodd" clip-rule="evenodd" d="M10.6465 4.64645L13.1147 2.17816L13.8219 2.88527L11.3536 5.35356L10.6465 4.64645Z" fill="#ACADB8"/>
<path fill-rule="evenodd" clip-rule="evenodd" d="M2.17816 13.1147L4.64645 10.6464L5.35356 11.3535L2.88527 13.8218L2.17816 13.1147Z" fill="#ACADB8"/>
<path fill-rule="evenodd" clip-rule="evenodd" d="M11.3535 10.6465L13.8218 13.1147L13.1147 13.8219L10.6464 11.3536L11.3535 10.6465Z" fill="#ACADB8"/>
<path fill-rule="evenodd" clip-rule="evenodd" d="M2.88526 2.17813L5.35355 4.64642L4.64644 5.35353L2.17815 2.88524L2.88526 2.17813Z" fill="#ACADB8"/>
<path fill-rule="evenodd" clip-rule="evenodd" d="M8 15C11.866 15 15 11.866 15 8C15 4.13401 11.866 1 8 1C4.13401 1 1 4.13401 1 8C1 11.866 4.13401 15 8 15ZM8 16C12.4183 16 16 12.4183 16 8C16 3.58172 12.4183 0 8 0C3.58172 0 0 3.58172 0 8C0 12.4183 3.58172 16 8 16Z" fill="#ACADB8"/>
<path fill-rule="evenodd" clip-rule="evenodd" d="M8 11.5C9.933 11.5 11.5 9.933 11.5 8C11.5 6.067 9.933 4.5 8 4.5C6.067 4.5 4.5 6.067 4.5 8C4.5 9.933 6.067 11.5 8 11.5ZM8 12.5C10.4853 12.5 12.5 10.4853 12.5 8C12.5 5.51472 10.4853 3.5 8 3.5C5.51472 3.5 3.5 5.51472 3.5 8C3.5 10.4853 5.51472 12.5 8 12.5Z" fill="#ACADB8"/>
</svg>
