<svg width="16" height="16" viewBox="0 0 16 16" fill="none" xmlns="http://www.w3.org/2000/svg">
<g clip-path="url(#clip0)">
<path d="M12.508 6.77843C12.046 6.77843 11.6735 7.15087 11.6735 7.61269V9.41529C11.6735 10.6369 10.8985 11.4265 9.90002 12.4246L9.76589 12.5736L7.88813 14.257C7.50066 13.9739 6.91945 13.5419 6.29353 13.0205C4.90756 11.8883 4.37106 10.8902 4.37106 9.48978V6.22722C4.37106 5.85478 4.073 5.54193 3.68553 5.54193C3.31296 5.54193 3 5.83988 3 6.22722V9.48978C3.0149 11.7691 4.22203 13.0801 5.41426 14.0782C6.51707 14.987 7.50066 15.6723 7.54537 15.7021L7.99245 16L10.6899 13.5866L10.8687 13.4078C11.9268 12.3352 13.0296 11.2179 13.0296 9.44509V6.77843H12.508Z" fill="#ACADB8"/>
<path d="M5.71231 8.53629C5.93586 8.4469 6.1594 8.40221 6.36804 8.40221V5.46739C6.36804 5.09495 6.06998 4.7821 5.68251 4.7821C5.30994 4.7821 4.99698 5.08006 4.99698 5.46739V9.0428C5.19072 8.81934 5.42916 8.65547 5.71231 8.53629Z" fill="#ACADB8"/>
<path d="M7.87322 9.19181H7.91793C8.05206 8.99814 8.21599 8.83427 8.40973 8.71509V5.19926C8.40973 4.82683 8.11167 4.51398 7.7242 4.51398C7.35163 4.51398 7.03867 4.81193 7.03867 5.19926V8.53632C7.36653 8.6555 7.66458 8.87896 7.87322 9.19181Z" fill="#ACADB8"/>
<path d="M10.4067 1.96648V0.685287C10.4067 0.312849 10.1086 0 9.72118 0C9.3486 0 9.03564 0.297951 9.03564 0.685287V1.98137L9.72118 0.804468L10.4067 1.96648Z" fill="#ACADB8"/>
<path d="M9.05054 5V8.43205C9.3784 8.35756 9.73607 8.38736 10.0788 8.53633C10.1981 8.58103 10.3024 8.64062 10.4067 8.71511V5C10.213 5.13408 9.97451 5.20857 9.72117 5.20857C9.46782 5.20857 9.24427 5.13408 9.05054 5Z" fill="#ACADB8"/>
<path d="M10.6749 3.12383L10.4216 2.67691L9.73607 1.5L9.05054 2.67691L8.79719 3.12383C8.60345 3.46648 8.60345 3.86871 8.79719 4.19646C8.8717 4.31564 8.94622 4.41992 9.05054 4.49441C9.24427 4.64338 9.48272 4.73277 9.73607 4.73277C9.98941 4.73277 10.2279 4.64338 10.4216 4.49441C10.5259 4.41992 10.6153 4.31564 10.6749 4.19646C10.8687 3.86871 10.8687 3.46648 10.6749 3.12383Z" fill="#ACADB8"/>
</g>
<defs>
<clipPath id="clip0">
<rect width="16" height="16" fill="white"/>
</clipPath>
</defs>
</svg>
