<svg width="16" height="16" viewBox="0 0 16 16" fill="none" xmlns="http://www.w3.org/2000/svg">
<g clip-path="url(#clip0)">
<path fill-rule="evenodd" clip-rule="evenodd" d="M0.5 2C0.5 1.44772 0.947715 1 1.5 1H14.5C15.0523 1 15.5 1.44772 15.5 2V11.6563C15.5 12.2086 15.0523 12.6563 14.5 12.6563H13.6429V15C13.6429 15.3753 13.4327 15.719 13.0987 15.8901C12.7647 16.0611 12.363 16.0308 12.0585 15.8115L7.67739 12.6563H1.5C0.947715 12.6563 0.5 12.2086 0.5 11.6563V2ZM8 11.6563L12.6429 15V11.6563H14.5V2H1.5V11.6563H8Z" fill="#00877B"/>
<path fill-rule="evenodd" clip-rule="evenodd" d="M11 6H4.5V5H11V6Z" fill="#00877B"/>
<path fill-rule="evenodd" clip-rule="evenodd" d="M8.5 8.5H4.5V7.5H8.5V8.5Z" fill="#00877B"/>
</g>
<defs>
<clipPath id="clip0">
<rect width="16" height="16" fill="white"/>
</clipPath>
</defs>
</svg>
