<svg width="16" height="16" viewBox="0 0 16 16" fill="none" xmlns="http://www.w3.org/2000/svg">
<g clip-path="url(#clip0)">
<path fill-rule="evenodd" clip-rule="evenodd" d="M6.5 13C6.5 13.8284 7.17157 14.5 8 14.5C8.82843 14.5 9.5 13.8284 9.5 13H10.5C10.5 14.3807 9.38071 15.5 8 15.5C6.61929 15.5 5.5 14.3807 5.5 13H6.5Z" fill="#ACADB8"/>
<path fill-rule="evenodd" clip-rule="evenodd" d="M8.5 0.5V2H7.5V0.5H8.5Z" fill="#ACADB8"/>
<path fill-rule="evenodd" clip-rule="evenodd" d="M2.81679 3.86171C1.0937 5.07884 0.683537 7.46236 1.90067 9.18545L1.08388 9.76239C-0.451884 7.58821 0.0656563 4.5807 2.23984 3.04493L2.81679 3.86171Z" fill="#ACADB8"/>
<path fill-rule="evenodd" clip-rule="evenodd" d="M13.2038 3.86171C14.9269 5.07884 15.3371 7.46236 14.1199 9.18545L14.9367 9.76239C16.4725 7.58821 15.9549 4.5807 13.7808 3.04493L13.2038 3.86171Z" fill="#ACADB8"/>
<path fill-rule="evenodd" clip-rule="evenodd" d="M3.65705 6.16319C3.65705 3.63382 5.57154 1.5 8 1.5C10.4285 1.5 12.3429 3.63382 12.3429 6.16319V9.63127L13.8637 11.2437C13.9513 11.3365 14 11.4593 14 11.5868V13C14 13.2761 13.7761 13.5 13.5 13.5H2.5C2.22386 13.5 2 13.2761 2 13V11.5868C2 11.4593 2.04874 11.3365 2.13626 11.2437L3.65705 9.63127V6.16319ZM8 2.5C6.19769 2.5 4.65705 4.10923 4.65705 6.16319V9.82986C4.65705 9.95741 4.60831 10.0801 4.52079 10.1729L3 11.7854V12.5H13V11.7854L11.4792 10.1729C11.3917 10.0801 11.3429 9.95741 11.3429 9.82986V6.16319C11.3429 4.10923 9.80231 2.5 8 2.5Z" fill="#ACADB8"/>
</g>
<defs>
<clipPath id="clip0">
<rect width="16" height="16" fill="white"/>
</clipPath>
</defs>
</svg>
