<svg width="20" height="20" viewBox="0 0 20 20" fill="none" xmlns="http://www.w3.org/2000/svg">
<g clip-path="url(#clip0)">
<path fill-rule="evenodd" clip-rule="evenodd" d="M8 16.25C8 17.3546 8.89543 18.25 10 18.25C11.1046 18.25 12 17.3546 12 16.25H13C13 17.9069 11.6569 19.25 10 19.25C8.34315 19.25 7 17.9069 7 16.25H8Z" fill="#00877B"/>
<path fill-rule="evenodd" clip-rule="evenodd" d="M10.5 0.625V2.5H9.5V0.625H10.5Z" fill="#00877B"/>
<path fill-rule="evenodd" clip-rule="evenodd" d="M3.44887 4.72503C1.23862 6.28627 0.712495 9.34367 2.27374 11.5539L1.45695 12.1309C-0.422926 9.46952 0.210577 5.78813 2.87192 3.90825L3.44887 4.72503Z" fill="#66B7B0"/>
<path fill-rule="evenodd" clip-rule="evenodd" d="M16.5769 4.72503C18.7871 6.28627 19.3133 9.34367 17.752 11.5539L18.5688 12.1309C20.4487 9.46952 19.8152 5.78813 17.1538 3.90825L16.5769 4.72503Z" fill="#66B7B0"/>
<path fill-rule="evenodd" clip-rule="evenodd" d="M4.69631 7.70399C4.69631 4.6017 7.0427 2 10 2C12.9573 2 15.3037 4.6017 15.3037 7.70399V12.0887L17.2387 14.1404C17.3263 14.2332 17.375 14.356 17.375 14.4835V16.25C17.375 16.5261 17.1511 16.75 16.875 16.75H3.125C2.84886 16.75 2.625 16.5261 2.625 16.25V14.4835C2.625 14.356 2.67374 14.2332 2.76126 14.1404L4.69631 12.0887V7.70399ZM10 3C7.66884 3 5.69631 5.07712 5.69631 7.70399V12.2873C5.69631 12.4149 5.64757 12.5376 5.56006 12.6304L3.625 14.6821V15.75H16.375V14.6821L14.4399 12.6304C14.3524 12.5376 14.3037 12.4149 14.3037 12.2873V7.70399C14.3037 5.07712 12.3312 3 10 3Z" fill="#00877B"/>
</g>
<defs>
<clipPath id="clip0">
<rect width="20" height="20" fill="white"/>
</clipPath>
</defs>
</svg>
