<svg width="32" height="32" viewBox="0 0 32 32" fill="none" xmlns="http://www.w3.org/2000/svg">
<g clip-path="url(#clip0)">
<path d="M11.6966 20.4138C11.6966 21.1862 11.4759 21.8483 10.9242 22.2896C10.3724 22.731 9.71036 22.9517 8.8276 22.9517H7.8345V25.4896H6.28967V17.7655H8.8276C9.71036 17.7655 10.4828 17.9862 10.9242 18.4276C11.3655 18.869 11.6966 19.531 11.6966 20.4138ZM10.1517 20.4138C10.1517 20.0827 10.0414 19.7517 9.82071 19.531C9.60002 19.3103 9.26898 19.2 8.8276 19.2H7.8345V21.7379H8.8276C9.26898 21.7379 9.60002 21.6276 9.82071 21.4069C10.0414 21.0758 10.1517 20.7448 10.1517 20.4138Z" fill="white"/>
<path d="M19.531 21.6276C19.531 22.9517 19.2 23.8345 18.5379 24.4965C17.8759 25.1586 16.8828 25.4896 15.5586 25.4896H12.9103V17.7655H15.5586C16.7724 17.7655 17.6552 18.0965 18.4276 18.7586C19.2 19.531 19.531 20.4138 19.531 21.6276ZM17.9862 21.6276C17.9862 20.8552 17.7655 20.3034 17.3241 19.8621C16.8828 19.4207 16.331 19.2 15.5586 19.2H14.2345V24.2758H15.3379C17.2138 24.1655 17.9862 23.3931 17.9862 21.6276Z" fill="white"/>
<path d="M25.7103 17.7655V19.0896H22.4V20.8552H25.6V22.1793H22.4V25.4896H20.9655V17.7655H25.7103Z" fill="white"/>
<path d="M27.0345 16.8828H4.96554C4.63451 16.8828 4.41382 16.6621 4.41382 16.331V0.551724C4.41382 0.22069 4.63451 0 4.96554 0H18.2069C18.3173 0 18.538 0.110345 18.6483 0.110345L27.4759 9.04828C27.5862 9.15862 27.5862 9.26897 27.5862 9.48966V16.331C27.5862 16.5517 27.3655 16.8828 27.0345 16.8828ZM5.51727 15.7793H26.4828V9.71035L17.9862 1.10345H5.51727V15.7793Z" fill="white"/>
<path d="M27.0345 32H4.96554C4.63451 32 4.41382 31.7793 4.41382 31.4482V27.0345C4.41382 26.7034 4.63451 26.4827 4.96554 26.4827H27.0345C27.3655 26.4827 27.5862 26.7034 27.5862 27.0345V31.4482C27.5862 31.7793 27.3655 32 27.0345 32ZM5.51727 30.8965H26.4828V27.5862H5.51727V30.8965Z" fill="white"/>
<path d="M27.0345 10.0414H18.2069C17.8758 10.0414 17.6552 9.82068 17.6552 9.48965V0.551715C17.6552 0.331025 17.7655 0.110336 17.9862 -9.01148e-06C18.2069 -0.110354 18.4276 -9.0003e-06 18.5379 0.110336L27.2552 8.93792C27.3655 9.04827 27.4758 9.15861 27.4758 9.3793C27.5862 9.82068 27.3655 10.0414 27.0345 10.0414ZM18.7586 8.93792H25.7103L18.7586 1.87585V8.93792Z" fill="white"/>
<path d="M31.4483 27.5862H0.551724C0.22069 27.5862 0 27.3655 0 27.0345V16.2207C0 15.8896 0.22069 15.6689 0.551724 15.6689H31.4483C31.7793 15.6689 32 15.8896 32 16.2207V27.0345C32 27.3655 31.7793 27.5862 31.4483 27.5862ZM1.10345 26.4827H30.8966V16.7724H1.10345V26.4827Z" fill="white"/>
</g>
<defs>
<clipPath id="clip0">
<rect width="32" height="32" fill="white"/>
</clipPath>
</defs>
</svg>
