<svg width="42" height="42" viewBox="0 0 42 42" fill="none" xmlns="http://www.w3.org/2000/svg">
<path d="M2.55316 20.9681C2.55316 11.0258 10.5318 2.86798 20.4253 2.54932V0C9.06371 0.318665 0 9.62367 0 20.9681C0 24.4734 0.893605 27.9788 2.61699 31.0379L4.78717 29.6995C3.3191 27.0228 2.55316 24.0273 2.55316 20.9681Z" fill="#E0E5E9"/>
<path d="M20.9998 39.4506C14.6807 39.4506 8.74466 36.2003 5.42555 30.8467L3.25537 32.1851C7.08511 38.2397 13.851 42 21.0636 42C28.2763 42 35.0422 38.2397 38.8719 32.1214L36.7017 30.783C33.255 36.1365 27.3827 39.4506 20.9998 39.4506Z" fill="#ACADB8"/>
<path d="M39.5104 20.9681C39.5104 24.0273 38.7444 27.0228 37.2763 29.6995L39.4465 31.0379C41.1061 27.9788 41.9997 24.5372 41.9997 21.0319C42.0635 9.62367 32.9998 0.318665 21.7021 0V2.54932C31.5317 2.86798 39.5104 11.0258 39.5104 20.9681Z" fill="#E0E5E9"/>
<path d="M17.3826 25.168C19.9306 25.168 20.9526 22.606 20.9526 20.338C20.9526 18.056 19.9306 15.522 17.3826 15.522C14.8206 15.522 13.8126 18.056 13.8126 20.338C13.8126 22.606 14.8206 25.168 17.3826 25.168ZM17.3826 24.132C15.6046 24.132 15.0026 22.2 15.0026 20.338C15.0026 18.476 15.6046 16.558 17.3826 16.558C19.1606 16.558 19.7626 18.476 19.7626 20.338C19.7626 22.2 19.1606 24.132 17.3826 24.132Z" fill="#ACADB8"/>
<path d="M28.8389 25V23.964H24.2609C26.8649 21.906 28.7969 20.17 28.7969 18.266C28.7969 16.404 27.2149 15.522 25.6609 15.522C24.3449 15.522 23.1269 16.054 22.4129 16.992L23.1269 17.734C23.6729 17.034 24.5409 16.558 25.6609 16.558C26.6269 16.558 27.6069 17.076 27.6069 18.266C27.6069 19.876 25.7869 21.43 22.4269 24.076V25H28.8389Z" fill="#ACADB8"/>
</svg>
