<svg width="42" height="42" viewBox="0 0 42 42" fill="none" xmlns="http://www.w3.org/2000/svg">
<path d="M2.55316 20.9681C2.55316 11.0258 10.5318 2.86798 20.4253 2.54932V0C9.06371 0.318665 0 9.62367 0 20.9681C0 24.4734 0.893605 27.9788 2.61699 31.0379L4.78717 29.6995C3.3191 27.0228 2.55316 24.0273 2.55316 20.9681Z" fill="#ACADB8"/>
<path d="M20.9998 39.4506C14.6807 39.4506 8.74466 36.2003 5.42555 30.8467L3.25537 32.1851C7.08511 38.2397 13.851 42 21.0636 42C28.2763 42 35.0422 38.2397 38.8719 32.1214L36.7017 30.783C33.255 36.1365 27.3827 39.4506 20.9998 39.4506Z" fill="#E0E5E9"/>
<path d="M39.5104 20.9681C39.5104 24.0273 38.7444 27.0228 37.2763 29.6995L39.4465 31.0379C41.1061 27.9788 41.9997 24.5372 41.9997 21.0319C42.0635 9.62367 32.9998 0.318665 21.7021 0V2.54932C31.5317 2.86798 39.5104 11.0258 39.5104 20.9681Z" fill="#E0E5E9"/>
<path d="M18.6014 25.168C21.1494 25.168 22.1714 22.606 22.1714 20.338C22.1714 18.056 21.1494 15.522 18.6014 15.522C16.0394 15.522 15.0314 18.056 15.0314 20.338C15.0314 22.606 16.0394 25.168 18.6014 25.168ZM18.6014 24.132C16.8234 24.132 16.2214 22.2 16.2214 20.338C16.2214 18.476 16.8234 16.558 18.6014 16.558C20.3794 16.558 20.9814 18.476 20.9814 20.338C20.9814 22.2 20.3794 24.132 18.6014 24.132Z" fill="#ACADB8"/>
<path d="M26.6136 25.168C28.6716 25.168 29.9176 24.034 29.9176 22.48C29.9176 20.982 28.6156 20.254 27.7616 20.184C28.6436 20.03 29.7776 19.358 29.7776 18.014C29.7776 16.432 28.4056 15.522 26.6136 15.522C25.1716 15.522 24.0936 16.152 23.4216 16.964L24.0656 17.692C24.7516 16.95 25.5076 16.558 26.5296 16.558C27.6636 16.558 28.6156 17.118 28.6156 18.154C28.6156 19.232 27.6216 19.694 26.4456 19.694C26.0676 19.694 25.6336 19.694 25.4796 19.68V20.744C25.6196 20.73 26.0536 20.73 26.4456 20.73C27.8176 20.73 28.7696 21.22 28.7696 22.382C28.7696 23.46 27.9436 24.132 26.5856 24.132C25.4796 24.132 24.5276 23.628 23.9816 22.9L23.2956 23.628C23.8696 24.468 25.0316 25.168 26.6136 25.168Z" fill="#ACADB8"/>
</svg>
