<svg width="3" height="13" viewBox="0 0 3 13" fill="none" xmlns="http://www.w3.org/2000/svg">
<path fill-rule="evenodd" clip-rule="evenodd" d="M3 1.5C3 0.671573 2.32843 -2.93554e-08 1.5 -6.55671e-08C0.671573 -1.01779e-07 2.09063e-07 0.671573 1.72852e-07 1.5C-1.01779e-07 2.32843 0.671573 3 1.5 3C2.32843 3 3 2.32843 3 1.5ZM1.5 5C2.32843 5 3 5.67157 3 6.5C3 7.32843 2.32843 8 1.5 8C0.671572 8 -7.97173e-07 7.32843 -5.22543e-07 6.5C-4.86331e-07 5.67157 0.671572 5 1.5 5ZM1.5 10C2.32843 10 3 10.6716 3 11.5C3 12.3284 2.32843 13 1.5 13C0.671572 13 -1.01573e-06 12.3284 -7.411e-07 11.5C-7.04888e-07 10.6716 0.671572 10 1.5 10Z" fill="#676874"/>
</svg>
