<svg width="16" height="16" viewBox="0 0 16 16" fill="none" xmlns="http://www.w3.org/2000/svg">
<g clip-path="url(#clip0)">
<path fill-rule="evenodd" clip-rule="evenodd" d="M12.1317 5.32294L9.38167 8.57294L8.61829 7.927L11.3683 4.677L12.1317 5.32294Z" fill="#ACADB8"/>
<path fill-rule="evenodd" clip-rule="evenodd" d="M7.5 2.5V0.5H8.5V2.5H7.5ZM2.75 8.5H0.25V7.5H2.75V8.5ZM15.5 8.5H13.25V7.5H15.5V8.5Z" fill="#ACADB8"/>
<path fill-rule="evenodd" clip-rule="evenodd" d="M12.9638 3.17095C10.1906 0.397683 5.6942 0.397683 2.92093 3.17095C0.147664 5.94422 0.147664 10.4406 2.92093 13.2139L2.21383 13.921C-0.949967 10.7572 -0.949967 5.62764 2.21383 2.46385C5.37762 -0.699948 10.5071 -0.699948 13.6709 2.46385C16.8347 5.62764 16.8347 10.7572 13.6709 13.921L12.9638 13.2139C15.7371 10.4406 15.7371 5.94422 12.9638 3.17095Z" fill="#ACADB8"/>
<path fill-rule="evenodd" clip-rule="evenodd" d="M8.00002 8.10002C7.22683 8.10002 6.60002 8.72683 6.60002 9.50002C6.60002 10.2732 7.22683 10.9 8.00002 10.9C8.77322 10.9 9.40002 10.2732 9.40002 9.50002C9.40002 8.72683 8.77322 8.10002 8.00002 8.10002ZM5.40002 9.50002C5.40002 8.06408 6.56408 6.90002 8.00002 6.90002C9.43596 6.90002 10.6 8.06408 10.6 9.50002C10.6 10.936 9.43596 12.1 8.00002 12.1C6.56408 12.1 5.40002 10.936 5.40002 9.50002Z" fill="#ACADB8"/>
</g>
<defs>
<clipPath id="clip0">
<rect width="16" height="16" fill="white"/>
</clipPath>
</defs>
</svg>
