<svg width="16" height="16" viewBox="0 0 16 16" fill="none" xmlns="http://www.w3.org/2000/svg">
<path fill-rule="evenodd" clip-rule="evenodd" d="M8.31654 4.06262L9.13798 4.9374L6.51546 7.40001H15.75V8.60001H6.51546L9.13798 11.0626L8.31654 11.9374L4.12347 8.00001L8.31654 4.06262Z" fill="#00877B"/>
<path fill-rule="evenodd" clip-rule="evenodd" d="M0.5 2C0.5 1.17157 1.17157 0.5 2 0.5H12.5C13.3284 0.5 14 1.17157 14 2V3.69231H13V2C13 1.72386 12.7761 1.5 12.5 1.5H2C1.72386 1.5 1.5 1.72386 1.5 2V14C1.5 14.2761 1.72386 14.5 2 14.5H12.5C12.7761 14.5 13 14.2761 13 14V12.3077H14V14C14 14.8284 13.3284 15.5 12.5 15.5H2C1.17157 15.5 0.5 14.8284 0.5 14V2Z" fill="#66B7B0"/>
</svg>
