<svg width="16" height="16" viewBox="0 0 16 16" fill="none" xmlns="http://www.w3.org/2000/svg">
<path fill-rule="evenodd" clip-rule="evenodd" d="M15 1H1V15H15V1ZM0 0V16H16V0H0Z" fill="#ACADB8"/>
<path fill-rule="evenodd" clip-rule="evenodd" d="M5.63446 2.15881L6.36552 2.84113L3.66665 5.73277L2.13446 4.09113L2.86552 3.40881L3.66665 4.26718L5.63446 2.15881Z" fill="#ACADB8"/>
<path fill-rule="evenodd" clip-rule="evenodd" d="M5.63446 6.15881L6.36552 6.84113L3.66665 9.73277L2.13446 8.09113L2.86552 7.40881L3.66665 8.26718L5.63446 6.15881Z" fill="#ACADB8"/>
<path fill-rule="evenodd" clip-rule="evenodd" d="M5.63446 10.1588L6.36552 10.8411L3.66665 13.7328L2.13446 12.0911L2.86552 11.4088L3.66665 12.2672L5.63446 10.1588Z" fill="#ACADB8"/>
<path fill-rule="evenodd" clip-rule="evenodd" d="M13 4.60002H7.5V3.40002H13V4.60002Z" fill="#ACADB8"/>
<path fill-rule="evenodd" clip-rule="evenodd" d="M13 8.60002H7.5V7.40002H13V8.60002Z" fill="#ACADB8"/>
<path fill-rule="evenodd" clip-rule="evenodd" d="M13 12.6H7.5V11.4H13V12.6Z" fill="#ACADB8"/>
</svg>
