<svg width="16" height="16" viewBox="0 0 16 16" fill="none" xmlns="http://www.w3.org/2000/svg">
<path fill-rule="evenodd" clip-rule="evenodd" d="M5.03937 6.93345C4.21262 6.04057 3.5 4.79962 3.5 3.5H4.5C4.5 4.45038 5.03738 5.45943 5.77313 6.25405C6.13547 6.64537 6.52898 6.96554 6.89397 7.18453C7.27097 7.41073 7.56885 7.5 7.75 7.5V8.5C7.56885 8.5 7.27097 8.58927 6.89397 8.81547C6.52898 9.03446 6.13547 9.35463 5.77313 9.74595C5.03738 10.5406 4.5 11.5496 4.5 12.5H3.5C3.5 11.2004 4.21262 9.95943 5.03937 9.06655C5.43723 8.63686 5.87743 8.26985 6.31073 8C5.87743 7.73015 5.43723 7.36314 5.03937 6.93345Z" fill="#ACADB8"/>
<path fill-rule="evenodd" clip-rule="evenodd" d="M10.9606 6.93345C11.7874 6.04057 12.5 4.79962 12.5 3.5H11.5C11.5 4.45038 10.9626 5.45943 10.2269 6.25405C9.86453 6.64537 9.47102 6.96554 9.10603 7.18453C8.72903 7.41073 8.43115 7.5 8.25 7.5V8.5C8.43115 8.5 8.72903 8.58927 9.10603 8.81547C9.47102 9.03446 9.86453 9.35463 10.2269 9.74595C10.9626 10.5406 11.5 11.5496 11.5 12.5H12.5C12.5 11.2004 11.7874 9.95943 10.9606 9.06655C10.5628 8.63686 10.1226 8.26985 9.68927 8C10.1226 7.73015 10.5628 7.36314 10.9606 6.93345Z" fill="#ACADB8"/>
<path fill-rule="evenodd" clip-rule="evenodd" d="M13 3H3V2H13V3Z" fill="#ACADB8"/>
<path fill-rule="evenodd" clip-rule="evenodd" d="M13 14H3V13H13V14Z" fill="#ACADB8"/>
</svg>
