<svg width="32" height="32" viewBox="0 0 32 32" fill="none" xmlns="http://www.w3.org/2000/svg">
<circle cx="16" cy="16" r="14.5" stroke="#66B7B0"/>
<path d="M18.4023 21.9355L18.2559 22.5605C17.6569 22.8014 17.1784 22.9674 16.8203 23.0586C16.4622 23.1562 16.1562 23.2051 15.9023 23.2051C15.3815 23.2051 14.9909 23.0716 14.7305 22.8047C14.4701 22.5312 14.3398 22.196 14.3398 21.7988C14.3398 21.6491 14.3529 21.4928 14.3789 21.3301C14.4049 21.1673 14.4473 20.9622 14.5059 20.7148L15.541 16.5645C15.5931 16.3366 15.6419 16.0924 15.6875 15.832C15.7396 15.5716 15.7656 15.3503 15.7656 15.168C15.7656 14.8034 15.7038 14.5625 15.5801 14.4453C15.4629 14.3216 15.2188 14.2598 14.8477 14.2598C14.7044 14.2598 14.5124 14.2826 14.2715 14.3281C14.0371 14.3737 13.8581 14.4128 13.7344 14.4453L13.8809 13.8203C14.3887 13.5924 14.8444 13.4232 15.248 13.3125C15.6517 13.2018 15.9707 13.1465 16.2051 13.1465C16.7389 13.1465 17.1263 13.2734 17.3672 13.5273C17.6081 13.7812 17.7285 14.123 17.7285 14.5527C17.7285 14.6699 17.7155 14.8294 17.6895 15.0312C17.6634 15.2331 17.6243 15.4349 17.5723 15.6367L16.5273 19.7871C16.4622 20.041 16.4036 20.2917 16.3516 20.5391C16.306 20.7799 16.2832 20.9785 16.2832 21.1348C16.2832 21.5059 16.3646 21.7598 16.5273 21.8965C16.6966 22.0332 16.9668 22.1016 17.3379 22.1016C17.4616 22.1016 17.6374 22.0853 17.8652 22.0527C18.0996 22.0202 18.2786 21.9811 18.4023 21.9355ZM19.0957 9.45508C19.0957 9.82617 18.9753 10.1517 18.7344 10.4316C18.4935 10.7051 18.194 10.8418 17.8359 10.8418C17.5039 10.8418 17.2174 10.7116 16.9766 10.4512C16.7357 10.1842 16.6152 9.88151 16.6152 9.54297C16.6152 9.1849 16.7357 8.8724 16.9766 8.60547C17.2174 8.33854 17.5039 8.20508 17.8359 8.20508C18.207 8.20508 18.5098 8.33203 18.7441 8.58594C18.9785 8.83333 19.0957 9.12305 19.0957 9.45508Z" fill="#00877B"/>
</svg>
