<svg width="1141" height="696" viewBox="0 0 1141 696" fill="none" xmlns="http://www.w3.org/2000/svg">
<path d="M0 10C0 4.47715 4.47715 0 10 0H1131C1136.52 0 1141 4.47715 1141 10V686C1141 691.523 1136.52 696 1131 696H10C4.47718 696 0 691.523 0 686V10Z" fill="#00877B"/>
<mask id="mask0" mask-type="alpha" maskUnits="userSpaceOnUse" x="0" y="0" width="1141" height="696">
<path d="M0 10C0 4.47715 4.47715 0 10 0H1131C1136.52 0 1141 4.47715 1141 10V686C1141 691.523 1136.52 696 1131 696H10C4.47718 696 0 691.523 0 686V10Z" fill="#00877B"/>
</mask>
<g mask="url(#mask0)">
<g opacity="0.6">
<path d="M306.165 233.407C361.421 131.521 329.831 -15.5162 452.261 -15.5162C574.691 -15.5162 581.192 124.882 673.928 194.353C852.393 328.044 850.192 460.821 480.532 504.414C352.854 519.453 174.458 476.334 306.165 233.407Z" stroke="#66B7B0" stroke-width="2" stroke-miterlimit="10" stroke-linecap="round"/>
<path d="M299.731 264.06C345.135 157.839 295.127 -6.70952 436.822 -6.40467C562.604 -6.26917 580.311 115.093 677.483 181.041C863.092 306.976 840.475 442.733 483.647 516.743C358.068 542.824 192.741 514.304 299.731 264.06Z" stroke="#66B7B0" stroke-width="1.9062" stroke-miterlimit="10" stroke-linecap="round"/>
<path d="M293.265 294.714C328.815 183.92 260.389 2.09706 421.349 2.74063C550.516 3.01162 579.296 105.338 681.005 167.763C873.69 285.975 830.148 425.628 486.728 529.14C363.012 566.433 210.821 551.732 293.265 294.714Z" stroke="#66B7B0" stroke-width="1.8125" stroke-miterlimit="10" stroke-linecap="round"/>
<path d="M286.832 325.368C312.394 209.798 225.684 10.9038 405.944 11.8522C538.463 12.2248 578.348 95.6168 684.594 154.418C884.321 264.975 819.483 409.505 489.911 541.469C367.786 590.38 228.596 588.686 286.832 325.368Z" stroke="#66B7B0" stroke-width="1.7188" stroke-miterlimit="10" stroke-linecap="round"/>
<path d="M280.365 356.022C295.77 235.507 190.946 19.7106 390.47 20.9638C526.376 21.4719 577.298 85.8958 688.115 141.107C894.783 244.076 808.682 394.568 493.026 553.833C372.458 614.7 245.965 625.302 280.365 356.022Z" stroke="#66B7B0" stroke-width="1.625" stroke-miterlimit="10" stroke-linecap="round"/>
<path d="M273.932 386.676C279.011 261.114 156.242 28.5169 375.031 30.1089C514.289 30.7525 576.248 76.2421 691.67 127.829C905.211 223.279 798.017 380.681 496.141 566.23C377.164 639.358 262.826 661.646 273.932 386.676Z" stroke="#66B7B0" stroke-width="1.5312" stroke-miterlimit="10" stroke-linecap="round"/>
<path d="M267.465 417.33C261.98 286.687 121.504 37.3234 359.558 39.2203C502.167 39.9993 575.165 66.5886 695.191 114.517C915.605 202.482 787.657 367.708 499.256 578.593C381.972 664.356 279.247 697.923 267.465 417.33Z" stroke="#66B7B0" stroke-width="1.4375" stroke-miterlimit="10" stroke-linecap="round"/>
<path d="M261.032 447.984C244.814 312.226 86.7995 46.1301 344.119 48.3318C490.114 49.2464 574.082 56.9691 698.746 101.172C925.966 181.718 777.804 355.412 502.404 590.922C386.983 689.658 295.228 734.199 261.032 447.984Z" stroke="#66B7B0" stroke-width="1.3438" stroke-miterlimit="10" stroke-linecap="round"/>
<path d="M254.565 478.637C227.411 337.867 52.0277 54.9369 328.68 57.4435C478.027 58.4596 572.964 47.3836 702.301 87.8603C936.326 161.091 768.493 343.659 505.553 603.285C392.197 715.197 310.871 770.611 254.565 478.637Z" stroke="#66B7B0" stroke-width="1.25" stroke-miterlimit="10" stroke-linecap="round"/>
<path d="M248.132 509.291C209.94 363.542 17.3233 63.7436 313.241 66.5888C465.973 67.7405 571.881 37.8996 705.856 74.5826C946.687 140.531 759.792 332.278 508.668 615.682C397.716 740.872 326.208 807.125 248.132 509.291Z" stroke="#66B7B0" stroke-width="1.1562" stroke-miterlimit="10" stroke-linecap="round"/>
<path d="M241.665 539.945C192.267 389.352 -17.415 72.5501 297.768 75.7002C453.852 76.9873 570.73 28.3815 709.377 61.2709C956.98 119.97 751.564 321.066 511.783 628.045C403.472 766.682 341.343 843.842 241.665 539.945Z" stroke="#66B7B0" stroke-width="1.0625" stroke-miterlimit="10" stroke-linecap="round"/>
<path d="M235.232 570.599C174.559 415.196 -52.1191 81.3567 282.329 84.8116C441.765 86.2342 569.612 18.8974 712.933 47.9254C967.34 99.4781 743.912 309.855 514.932 640.341C409.499 792.526 356.308 880.762 235.232 570.599Z" stroke="#66B7B0" stroke-width="0.9688" stroke-miterlimit="10" stroke-linecap="round"/>
<path d="M228.765 601.253C156.784 441.175 -86.8573 90.1632 266.889 93.9569C429.712 95.515 568.529 9.48097 716.488 34.6476C977.667 79.0873 736.701 298.643 518.047 652.738C415.762 818.404 371.171 917.851 228.765 601.253Z" stroke="#66B7B0" stroke-width="0.875" stroke-miterlimit="10" stroke-linecap="round"/>
<path d="M222.332 631.907C138.941 467.257 -121.561 98.97 251.45 103.069C417.625 104.728 567.412 0.0649062 720.043 21.3363C988.027 58.6968 729.861 287.297 521.196 665.101C422.229 844.248 386.001 955.144 222.332 631.907Z" stroke="#66B7B0" stroke-width="0.7812" stroke-miterlimit="10" stroke-linecap="round"/>
<path d="M215.866 662.561C121.098 493.405 -156.3 107.777 235.977 112.18C405.537 113.975 566.294 -9.35147 723.564 8.02471C998.354 38.3399 723.327 275.848 524.31 677.464C428.865 870.058 400.763 992.572 215.866 662.561Z" stroke="#66B7B0" stroke-width="0.6875" stroke-miterlimit="10" stroke-linecap="round"/>
<path d="M209.433 693.214C103.221 519.622 -191.004 116.583 220.538 121.325C393.45 123.222 565.177 -18.4969 727.119 -5.2869C1008.71 18.3894 717.097 264.196 527.425 689.827C435.637 895.801 415.559 1030.17 209.433 693.214Z" stroke="#66B7B0" stroke-width="0.5938" stroke-miterlimit="10" stroke-linecap="round"/>
<path d="M202.966 723.868C85.3437 545.873 -225.742 125.39 205.065 130.437C381.329 132.503 564.094 -28.0487 730.64 -18.5985C1019.11 -2.23848 711.07 252.341 530.54 702.19C442.544 921.509 430.321 1067.87 202.966 723.868Z" stroke="#66B7B0" stroke-width="0.5" stroke-miterlimit="10" stroke-linecap="round"/>
</g>
</g>
</svg>
