<svg width="202" height="64" viewBox="0 0 202 64" fill="none" xmlns="http://www.w3.org/2000/svg">
<path d="M38.4561 26.7398C36.6336 26.7398 35.1639 28.209 35.1639 30.0309V37.1418C35.1639 41.9608 32.1069 45.0755 28.168 49.013L27.6389 49.6007L20.2315 56.2415C18.7029 55.1249 16.4102 53.4206 13.941 51.3637C8.47363 46.8974 6.35722 42.9599 6.35722 37.4357V24.5654C6.35722 23.0962 5.18144 21.8621 3.65292 21.8621C2.1832 21.8621 0.948624 23.0374 0.948624 24.5654V37.4357C1.00741 46.4272 5.76933 51.5988 10.4725 55.5363C14.8229 59.1212 18.7029 61.8245 18.8793 61.942L20.643 63.1174L31.2838 53.5969L31.9893 52.8917C36.1633 48.6604 40.5137 44.2528 40.5137 37.2594V26.7398H38.4561Z" fill="white"/>
<path d="M11.6482 33.675C12.5301 33.3224 13.4119 33.146 14.235 33.146V21.5687C14.235 20.0995 13.0592 18.8654 11.5307 18.8654C10.0609 18.8654 8.82637 20.0407 8.82637 21.5687V35.6731C9.59063 34.7916 10.5313 34.1451 11.6482 33.675Z" fill="white"/>
<path d="M20.1727 36.2605H20.349C20.8781 35.4965 21.5248 34.8501 22.2891 34.3799V20.5106C22.2891 19.0414 21.1133 17.8073 19.5848 17.8073C18.115 17.8073 16.8805 18.9826 16.8805 20.5106V33.6747C18.1738 34.1448 19.3496 35.0264 20.1727 36.2605Z" fill="white"/>
<path d="M30.1668 7.75741V2.70334C30.1668 1.23413 28.991 0 27.4625 0C25.9928 0 24.7582 1.17537 24.7582 2.70334V7.81618L27.4625 3.17349L30.1668 7.75741Z" fill="white"/>
<path d="M24.817 16.8677V33.264C26.1104 32.9702 27.5213 33.0877 28.8735 33.6754C29.3438 33.8517 29.7553 34.0868 30.1668 34.3806V16.8677C29.4026 17.3966 28.4619 17.6904 27.4625 17.6904C26.4631 17.6904 25.5813 17.3966 24.817 16.8677Z" fill="white"/>
<path d="M31.225 10.6949L30.2256 8.93188L27.5213 4.28918L24.817 8.93188L23.8176 10.6949C23.0533 12.0466 23.0533 13.6333 23.8176 14.9262C24.1115 15.3964 24.4055 15.8078 24.817 16.1016C25.5813 16.6893 26.5219 17.0419 27.5213 17.0419C28.5207 17.0419 29.4613 16.6893 30.2256 16.1016C30.6371 15.8078 30.9899 15.3964 31.225 14.9262C31.9893 13.6333 31.9893 12.0466 31.225 10.6949Z" fill="url(#paint0_radial)"/>
<path d="M59.8553 53.4801H61.5014L64.8524 62.0603L68.2034 53.4801H69.9083V63.8233H68.6737V55.3607C68.6737 55.3607 68.3798 56.1834 68.2034 56.6536L65.3815 63.8821H64.3821L61.5602 56.6536C61.3839 56.1247 61.0899 55.3607 61.0899 55.3607V63.8821H59.9141V53.4801H59.8553Z" fill="#F7F7F8"/>
<path d="M78.9618 53.4801H80.4316L84.2529 63.8233H82.8419L81.7249 60.6498H77.6097L76.4927 63.8233H75.1405L78.9618 53.4801ZM77.9624 59.6508H81.3722L80.1964 56.1834C80.02 55.5958 79.7261 54.7142 79.7261 54.7142C79.7261 54.7142 79.4322 55.5958 79.2558 56.1834L77.9624 59.6508Z" fill="#F7F7F8"/>
<path d="M88.6032 60.3549H89.8966C90.0729 62.1179 91.1311 62.9994 93.0712 62.9994C94.4821 62.9994 95.5403 62.353 95.5403 61.0601C95.5403 59.6496 94.3058 59.297 92.4245 58.8856C90.602 58.4743 89.0147 57.9454 89.0147 56.006C89.0147 54.3017 90.4257 53.2439 92.5421 53.2439C95.1288 53.2439 96.187 54.5368 96.481 56.4762H95.2464C95.07 55.0069 94.1294 54.243 92.6009 54.243C91.1899 54.243 90.2493 54.8306 90.2493 55.8885C90.2493 57.0638 91.4251 57.4164 92.9536 57.7103C94.9524 58.1217 96.8337 58.5918 96.8337 60.9425C96.8337 62.8819 95.2464 63.9985 93.0124 63.9985C90.1317 64.0573 88.7208 62.4117 88.6032 60.3549Z" fill="#F7F7F8"/>
<path d="M101.243 53.4801H109.473V54.6555H106.005V63.8821H104.711V54.6555H101.243V53.4801Z" fill="#F7F7F8"/>
<path d="M114.823 53.4801H122.113V54.6555H116.116V57.9465H121.584V59.0631H116.116V62.7067H122.289V63.8821H114.823V53.4801Z" fill="#F7F7F8"/>
<path d="M127.874 53.4801H132.695C134.518 53.4801 135.752 54.5967 135.752 56.301C135.752 57.5351 135.223 58.4754 133.93 58.8868V58.9456C134.988 59.2982 135.341 60.0622 135.399 61.5901C135.517 63.2357 135.693 63.7058 135.87 63.8233V63.8821H134.459C134.224 63.7058 134.224 63.2944 134.106 61.5901C133.988 60.0622 133.401 59.5332 131.99 59.5332H129.109V63.8821H127.816V53.4801H127.874ZM129.227 58.4166H132.284C133.753 58.4166 134.459 57.7114 134.459 56.5361C134.459 55.3019 133.871 54.6555 132.342 54.6555H129.168V58.4166H129.227Z" fill="#F7F7F8"/>
<path d="M141.043 58.6506C141.043 55.5946 142.866 53.2439 145.981 53.2439C148.392 53.2439 149.862 54.6543 150.155 56.5349H148.862C148.627 55.242 147.569 54.3605 145.923 54.3605C143.63 54.3605 142.395 56.1823 142.395 58.6506C142.395 61.1776 143.806 62.8819 145.981 62.8819C147.921 62.8819 148.862 61.5302 148.98 60.0022H150.273C150.273 61.0601 149.744 62.1767 149.038 62.9407C148.333 63.6459 147.275 63.9985 145.923 63.9985C142.983 64.0573 141.043 61.8241 141.043 58.6506Z" fill="#F7F7F8"/>
<path d="M155.799 53.4801H157.093V62.648H162.501V63.8233H155.74V53.4801H155.799Z" fill="#F7F7F8"/>
<path d="M170.849 53.4801H172.319L176.14 63.8233H174.729L173.612 60.6498H169.497L168.38 63.8233H167.028L170.849 53.4801ZM169.85 59.6508H173.26L172.084 56.1834C171.907 55.5958 171.613 54.7142 171.613 54.7142C171.613 54.7142 171.32 55.5958 171.143 56.1834L169.85 59.6508Z" fill="#F7F7F8"/>
<path d="M180.549 60.3549H181.843C182.019 62.1179 183.077 62.9994 185.017 62.9994C186.428 62.9994 187.487 62.353 187.487 61.0601C187.487 59.6496 186.252 59.297 184.371 58.8856C182.548 58.4743 180.961 57.9454 180.961 56.006C180.961 54.3017 182.372 53.2439 184.488 53.2439C187.075 53.2439 188.133 54.5368 188.427 56.4762H187.193C187.016 55.0069 186.076 54.243 184.547 54.243C183.136 54.243 182.196 54.8306 182.196 55.8885C182.196 57.0638 183.371 57.4164 184.9 57.7103C186.899 58.1217 188.78 58.5918 188.78 60.9425C188.78 62.8819 187.193 63.9985 184.959 63.9985C182.019 64.0573 180.667 62.4117 180.549 60.3549Z" fill="#F7F7F8"/>
<path d="M193.659 60.3549H194.953C195.129 62.1179 196.187 62.9994 198.186 62.9994C199.597 62.9994 200.655 62.353 200.655 61.0601C200.655 59.6496 199.421 59.297 197.539 58.8856C195.717 58.4743 194.13 57.9454 194.13 56.006C194.13 54.3017 195.541 53.2439 197.657 53.2439C200.244 53.2439 201.302 54.5368 201.596 56.4762H200.361C200.185 55.0069 199.244 54.243 197.716 54.243C196.305 54.243 195.364 54.8306 195.364 55.8885C195.364 57.0638 196.54 57.4164 198.069 57.7103C200.067 58.1217 201.949 58.5918 201.949 60.9425C201.949 62.8819 200.361 63.9985 198.127 63.9985C195.188 64.0573 193.777 62.4117 193.659 60.3549Z" fill="#F7F7F8"/>
<path d="M76.9042 39.96H76.8454C75.1993 42.3107 72.6714 43.4861 69.6731 43.4861C63.2063 43.4861 58.8559 38.5495 58.8559 31.6149C58.8559 24.8565 62.6772 19.5674 69.9083 19.5674C75.2581 19.5674 78.5503 22.447 79.2557 26.9722H76.2575C75.6108 23.9162 73.4356 22.0944 69.8495 22.0944C64.3233 22.0944 61.7954 26.267 61.7954 31.6149C61.7954 37.2566 65.0876 41.0178 69.7319 41.0178C74.435 41.0178 76.669 37.7855 76.669 33.9656V33.4367H69.7319V30.9097H79.5497V43.0747H77.6684L76.9042 39.96Z" fill="#F7F7F8"/>
<path d="M82.9594 19.9832H91.3075C98.2446 19.9832 101.478 24.6846 101.478 31.5605C101.478 38.4364 97.9507 42.9616 91.0723 42.9616H82.9594V19.9832ZM91.0136 40.4345C96.4222 40.4345 98.5386 36.9672 98.5386 31.5605C98.5386 26.1538 96.5985 22.5102 91.1899 22.5102H85.8401V40.4345H91.0136Z" fill="#F7F7F8"/>
<path d="M104.3 19.9832H108.004L115.47 39.0829H115.529L122.936 19.9832H126.699V42.9616H123.935V24.0969H123.877C123.877 24.0969 123.289 25.9188 122.877 26.9766L116.587 42.9616H114.353L108.004 26.9766C107.533 25.8012 107.004 24.0969 107.004 24.0969H106.945V42.9616H104.359V19.9832H104.3Z" fill="#F7F7F8"/>
<path d="M153.271 39.9641H153.213C151.566 42.3149 149.039 43.4902 146.04 43.4902C139.573 43.4902 135.223 38.5537 135.223 31.619C135.223 24.8607 139.044 19.5715 146.275 19.5715C151.625 19.5715 154.917 22.4512 155.623 26.9763H152.683C152.037 23.9204 149.862 22.0986 146.275 22.0986C140.749 22.0986 138.221 26.2711 138.221 31.619C138.221 37.2608 141.514 41.022 146.158 41.022C150.861 41.022 153.095 37.7897 153.095 33.9698V33.4408H146.158V30.9138H155.976V43.0788H154.094L153.271 39.9641Z" fill="#F7F7F8"/>
<path d="M158.445 31.5014C158.445 24.7431 162.501 19.5127 169.321 19.5127C174.67 19.5127 177.963 22.5686 178.551 26.8587H175.729C175.2 23.9791 172.907 22.0397 169.262 22.0397C164.206 22.0397 161.384 26.0947 161.384 31.5014C161.384 37.1432 164.5 40.9044 169.262 40.9044C173.612 40.9044 175.67 37.9659 175.964 34.5574H178.844C178.786 36.8493 177.727 39.4352 176.081 41.0219C174.494 42.6086 172.143 43.4314 169.203 43.4314C162.677 43.4314 158.445 38.4361 158.445 31.5014Z" fill="#F7F7F8"/>
<path d="M180.608 31.5014C180.608 24.7431 184.665 19.5127 191.484 19.5127C196.834 19.5127 200.126 22.5686 200.714 26.8587H197.892C197.363 23.9791 195.07 22.0397 191.425 22.0397C186.37 22.0397 183.548 26.0947 183.548 31.5014C183.548 37.1432 186.663 40.9044 191.425 40.9044C195.776 40.9044 197.833 37.9659 198.127 34.5574H201.008C200.949 36.8493 199.891 39.4352 198.245 41.0219C196.658 42.6086 194.306 43.4314 191.367 43.4314C184.841 43.4314 180.608 38.4361 180.608 31.5014Z" fill="#F7F7F8"/>
<defs>
<radialGradient id="paint0_radial" cx="0" cy="0" r="1" gradientUnits="userSpaceOnUse" gradientTransform="translate(27.5103 10.7042) scale(5.43464 5.43272)">
<stop offset="0.0957346" stop-color="#FF4C3E"/>
<stop offset="0.1882" stop-color="#FF3D31"/>
<stop offset="0.3819" stop-color="#FF221C"/>
<stop offset="0.58" stop-color="#FF0F0C"/>
<stop offset="0.7834" stop-color="#FF0403"/>
<stop offset="1" stop-color="#FF0000"/>
</radialGradient>
</defs>
</svg>
