<svg width="210" height="50" viewBox="0 0 210 50" fill="none" xmlns="http://www.w3.org/2000/svg">
<g clip-path="url(#clip0)">
<path d="M135.603 22.74C134.81 23.8117 133.691 24.3243 132.293 24.3243C129.356 24.3243 127.352 22.0876 127.352 18.8723C127.352 15.7968 129.123 13.3737 132.433 13.3737C134.857 13.3737 136.395 14.6785 136.721 16.7754H135.37C135.09 15.3774 134.111 14.5387 132.433 14.5387C129.916 14.5387 128.75 16.4492 128.75 18.9189C128.75 21.4818 130.242 23.2059 132.386 23.2059C134.531 23.2059 135.556 21.7148 135.556 19.9907V19.7577H132.386V18.5927H136.861V24.1379H136.022L135.603 22.74Z" fill="#00877B"/>
<path d="M143.341 24.1379V23.1127H143.294C142.735 23.8583 142.082 24.3243 141.01 24.3243C139.472 24.3243 138.446 23.3923 138.446 21.808V16.5424H139.658V21.7614C139.658 22.74 140.311 23.2991 141.383 23.2991C142.595 23.2991 143.387 22.3672 143.387 21.2022V16.5424H144.599V24.1379H143.341Z" fill="#00877B"/>
<path d="M146.184 13.6067H147.396V24.1379H146.184V13.6067Z" fill="#00877B"/>
<path d="M148.562 16.5424H149.587V15.3308C149.587 14.0261 150.333 13.5601 151.592 13.5601C151.825 13.5601 152.011 13.5601 152.198 13.6067V14.6319C152.011 14.6319 151.918 14.6319 151.825 14.6319C151.079 14.6319 150.799 14.8183 150.799 15.424V16.589H152.198V17.5676H150.799V24.1845H149.587V17.521H148.562V16.5424Z" fill="#00877B"/>
<path d="M155.88 13.6067H159.703C162.872 13.6067 164.364 15.7502 164.364 18.9189C164.364 22.0876 162.779 24.1379 159.609 24.1379H155.88V13.6067ZM159.563 22.973C162.033 22.973 163.012 21.3886 163.012 18.9189C163.012 16.4492 162.127 14.7716 159.656 14.7716H157.185V22.973H159.563Z" fill="#00877B"/>
<path d="M165.763 13.6067H166.974V15.0978H165.763V13.6067ZM165.763 16.5424H166.974V24.1379H165.763V16.5424Z" fill="#00877B"/>
<path d="M173.221 23.0662C172.755 23.6719 171.962 24.2777 170.657 24.2777C169.212 24.2777 168.093 23.5787 168.093 22.1808C168.093 20.4101 169.492 20.0373 171.403 19.7111C172.475 19.5713 173.221 19.4315 173.221 18.6393C173.221 17.8005 172.615 17.288 171.496 17.288C170.238 17.288 169.632 17.8005 169.585 18.9655H168.42C168.466 17.4744 169.445 16.4026 171.45 16.4026C173.081 16.4026 174.246 17.0084 174.246 18.8257V22.4604C174.246 23.0662 174.386 23.4389 175.039 23.2526H175.085V24.1379C174.946 24.1845 174.759 24.2777 174.433 24.2777C173.78 24.1845 173.361 23.8583 173.221 23.0662ZM173.268 21.342V20.0373C172.848 20.2703 172.195 20.4567 171.543 20.5964C170.331 20.8294 169.398 21.0158 169.398 22.1342C169.398 23.1594 170.191 23.3923 170.983 23.3923C172.522 23.3457 173.268 22.2274 173.268 21.342Z" fill="#00877B"/>
<path d="M177.276 23.1127L177.23 24.0913H176.018V13.6067H177.23V17.6141H177.276C177.836 16.822 178.628 16.356 179.7 16.356C181.612 16.356 182.917 17.8471 182.917 20.3634C182.917 22.7866 181.705 24.3709 179.654 24.3709C178.675 24.3709 177.929 23.9981 177.276 23.1127ZM181.751 20.3634C181.751 18.6393 181.052 17.3811 179.607 17.3811C177.929 17.3811 177.183 18.7325 177.183 20.3634C177.183 22.0876 177.976 23.3457 179.607 23.3457C181.052 23.3457 181.751 22.0876 181.751 20.3634Z" fill="#00877B"/>
<path d="M183.756 20.3168C183.756 18.1267 185.201 16.3094 187.345 16.3094C189.629 16.3094 190.841 18.0801 190.841 20.5964H184.968C185.061 22.1342 185.9 23.2991 187.438 23.2991C188.557 23.2991 189.256 22.7866 189.536 21.7614H190.701C190.329 23.3923 189.163 24.3243 187.438 24.3243C185.108 24.3243 183.756 22.5536 183.756 20.3168ZM184.968 19.7111H189.536C189.443 18.2199 188.697 17.288 187.299 17.288C185.947 17.288 185.154 18.3597 184.968 19.7111Z" fill="#00877B"/>
<path d="M191.354 16.5424H192.473V14.1659H193.685V16.5424H195.177V17.5209H193.685V22.4604C193.685 22.9729 193.964 23.1593 194.431 23.1593C194.664 23.1593 194.943 23.1127 195.083 23.0661H195.13V24.0913C194.85 24.1379 194.524 24.1845 194.151 24.1845C193.172 24.1845 192.473 23.7651 192.473 22.6934V17.5209H191.354V16.5424Z" fill="#00877B"/>
<path d="M195.876 20.3168C195.876 18.1267 197.321 16.3094 199.465 16.3094C201.749 16.3094 202.961 18.0801 202.961 20.5964H197.088C197.181 22.1342 198.02 23.2991 199.558 23.2991C200.677 23.2991 201.376 22.7866 201.656 21.7614H202.821C202.448 23.3923 201.283 24.3243 199.558 24.3243C197.228 24.3243 195.876 22.5536 195.876 20.3168ZM197.134 19.7111H201.703C201.609 18.2199 200.863 17.288 199.465 17.288C198.067 17.288 197.274 18.3597 197.134 19.7111Z" fill="#00877B"/>
<path d="M203.66 21.6682H204.872C205.012 22.973 205.898 23.3457 207.063 23.3457C208.322 23.3457 208.835 22.7866 208.835 22.0876C208.835 21.2488 208.229 21.0158 206.83 20.7362C205.339 20.4101 203.987 20.1305 203.987 18.4529C203.987 17.1948 204.966 16.356 206.737 16.356C208.602 16.356 209.534 17.2414 209.72 18.7325H208.508C208.368 17.7539 207.856 17.288 206.737 17.288C205.665 17.288 205.199 17.7539 205.199 18.3597C205.199 19.1985 205.945 19.3383 207.25 19.6179C208.788 19.9441 210.047 20.2703 210.047 21.9944C210.047 23.5321 208.788 24.3243 207.063 24.3243C204.919 24.3709 203.754 23.3457 203.66 21.6682Z" fill="#00877B"/>
<path d="M127.771 30.4287H129.449L132.852 39.1426H132.899L136.302 30.4287H138.027V40.9599H136.768V32.2926H136.721C136.721 32.2926 136.442 33.1314 136.255 33.5974L133.365 40.9133H132.34L129.449 33.5974C129.263 33.0848 128.983 32.2926 128.983 32.2926H128.937V40.9599H127.725V30.4287H127.771Z" fill="#00877B"/>
<path d="M144.46 39.8882C143.993 40.4939 143.201 41.0997 141.896 41.0997C140.451 41.0997 139.332 40.4007 139.332 39.0028C139.332 37.2321 140.73 36.8593 142.642 36.5331C143.714 36.3933 144.46 36.2535 144.46 35.4613C144.46 34.6225 143.854 34.11 142.735 34.11C141.476 34.11 140.87 34.6226 140.824 35.7875H139.658C139.705 34.2964 140.684 33.2246 142.688 33.2246C144.32 33.2246 145.485 33.8304 145.485 35.6477V39.2824C145.485 39.8882 145.625 40.2609 146.277 40.0746H146.324V40.9599C146.184 41.0065 145.998 41.0997 145.671 41.0997C144.972 41.0065 144.553 40.6803 144.46 39.8882ZM144.506 38.1174V36.8127C144.087 37.0457 143.434 37.2321 142.781 37.3718C141.569 37.6048 140.637 37.7912 140.637 38.9096C140.637 39.9348 141.43 40.1677 142.222 40.1677C143.76 40.1677 144.506 39.0028 144.506 38.1174Z" fill="#00877B"/>
<path d="M146.79 38.4902H148.002C148.142 39.7949 149.028 40.1677 150.193 40.1677C151.452 40.1677 151.964 39.6086 151.964 38.9096C151.964 38.0708 151.358 37.8378 149.96 37.5582C148.468 37.232 147.117 36.9525 147.117 35.2749C147.117 34.0168 148.095 33.178 149.867 33.178C151.731 33.178 152.664 34.0634 152.85 35.5545H151.638C151.498 34.5759 150.986 34.11 149.867 34.11C148.795 34.11 148.329 34.5759 148.329 35.1817C148.329 36.0205 149.074 36.1603 150.38 36.4399C151.918 36.7661 153.176 37.0922 153.176 38.8164C153.176 40.3541 151.918 41.1463 150.193 41.1463C148.095 41.1463 146.93 40.1677 146.79 38.4902Z" fill="#00877B"/>
<path d="M153.689 33.3178H154.808V30.9413H156.02V33.3178H157.512V34.2963H156.02V39.2358C156.02 39.7483 156.3 39.9347 156.766 39.9347C156.999 39.9347 157.279 39.8881 157.418 39.8415H157.465V40.8667C157.185 40.9133 156.859 40.9599 156.486 40.9599C155.507 40.9599 154.808 40.5405 154.808 39.4688V34.2963H153.689V33.3178Z" fill="#00877B"/>
<path d="M158.211 37.1388C158.211 34.9487 159.656 33.1314 161.8 33.1314C164.084 33.1314 165.296 34.9021 165.296 37.4184H159.423C159.516 38.9562 160.355 40.1211 161.893 40.1211C163.012 40.1211 163.711 39.6086 163.991 38.5834H165.156C164.784 40.2143 163.618 41.1463 161.893 41.1463C159.563 41.1463 158.211 39.329 158.211 37.1388ZM159.423 36.5331H163.991C163.898 35.0419 163.152 34.1099 161.754 34.1099C160.402 34.0633 159.609 35.1351 159.423 36.5331Z" fill="#00877B"/>
<path d="M167.627 34.6225C168.093 33.877 168.886 33.2712 169.911 33.2712C170.144 33.2712 170.238 33.3178 170.377 33.3644V34.4827H170.331C170.144 34.4361 170.051 34.3895 169.818 34.3895C168.653 34.3895 167.627 35.2749 167.627 36.7195V40.9599H166.415V33.3178H167.627V34.6225Z" fill="#00877B"/>
<path d="M170.797 37.1388C170.797 34.9487 172.195 33.1314 174.479 33.1314C176.251 33.1314 177.463 34.1565 177.743 35.7875H176.531C176.344 34.7623 175.645 34.1099 174.479 34.1099C172.848 34.1099 172.009 35.4613 172.009 37.1388C172.009 38.8164 172.848 40.1211 174.479 40.1211C175.738 40.1211 176.437 39.4222 176.531 38.2572H177.696C177.556 40.0745 176.344 41.1463 174.433 41.1463C172.195 41.1463 170.797 39.329 170.797 37.1388Z" fill="#00877B"/>
<path d="M178.861 30.4287H180.073V40.9599H178.861V30.4287Z" fill="#00877B"/>
<path d="M186.413 39.8882C185.947 40.4939 185.154 41.0997 183.849 41.0997C182.404 41.0997 181.285 40.4007 181.285 39.0028C181.285 37.2321 182.684 36.8593 184.595 36.5331C185.667 36.3933 186.413 36.2535 186.413 35.4613C186.413 34.6225 185.807 34.11 184.688 34.11C183.43 34.11 182.824 34.6226 182.777 35.7875H181.612C181.658 34.2964 182.637 33.2246 184.641 33.2246C186.273 33.2246 187.438 33.8304 187.438 35.6477V39.2824C187.438 39.8882 187.578 40.2609 188.231 40.0746H188.277V40.9599C188.138 41.0065 187.951 41.0997 187.625 41.0997C186.926 41.0065 186.506 40.6803 186.413 39.8882ZM186.413 38.1174V36.8127C185.993 37.0457 185.341 37.2321 184.688 37.3718C183.476 37.6048 182.544 37.7912 182.544 38.9096C182.544 39.9348 183.336 40.1677 184.129 40.1677C185.714 40.1677 186.413 39.0028 186.413 38.1174Z" fill="#00877B"/>
<path d="M188.744 38.4902H189.956C190.095 39.7949 190.981 40.1677 192.147 40.1677C193.405 40.1677 193.918 39.6086 193.918 38.9096C193.918 38.0708 193.312 37.8378 191.913 37.5582C190.422 37.232 189.07 36.9525 189.07 35.2749C189.07 34.0168 190.049 33.178 191.82 33.178C193.685 33.178 194.617 34.0634 194.804 35.5545H193.592C193.452 34.5759 192.939 34.11 191.82 34.11C190.748 34.11 190.282 34.5759 190.282 35.1817C190.282 36.0205 191.028 36.1603 192.333 36.4399C193.871 36.7661 195.13 37.0922 195.13 38.8164C195.13 40.3541 193.871 41.1463 192.147 41.1463C190.049 41.1463 188.883 40.1677 188.744 38.4902Z" fill="#00877B"/>
<path d="M195.782 38.4902H196.994C197.134 39.7949 198.02 40.1677 199.185 40.1677C200.444 40.1677 200.957 39.6086 200.957 38.9096C200.957 38.0708 200.351 37.8378 198.952 37.5582C197.461 37.232 196.109 36.9525 196.109 35.2749C196.109 34.0168 197.088 33.178 198.859 33.178C200.724 33.178 201.656 34.0634 201.842 35.5545H200.63C200.491 34.5759 199.978 34.11 198.859 34.11C197.787 34.11 197.321 34.5759 197.321 35.1817C197.321 36.0205 198.067 36.1603 199.372 36.4399C200.91 36.7661 202.169 37.0922 202.169 38.8164C202.169 40.3541 200.91 41.1463 199.185 41.1463C197.041 41.1463 195.876 40.1677 195.782 38.4902Z" fill="#00877B"/>
<path d="M64.3285 36.5331H64.2819C62.4639 39.0494 59.8069 40.3075 56.5438 40.3075C49.5982 40.3075 44.8901 34.9953 44.8901 27.493C44.8901 20.2237 48.9922 14.4921 56.8235 14.4921C62.5572 14.4921 66.0999 17.6142 66.8923 22.4604H63.6759C62.9767 19.1519 60.6459 17.1948 56.7303 17.1948C50.7636 17.1948 48.0599 21.6682 48.0599 27.493C48.0599 33.5508 51.6027 37.6048 56.6371 37.6048C61.7181 37.6048 64.1421 34.1566 64.1421 29.9627V29.3569H56.6837V26.6542H67.2653V39.7484H65.2608L64.3285 36.5331Z" fill="#000333"/>
<path d="M71.5538 15.0046H80.5505C88.0089 15.0046 91.5516 20.0839 91.5516 27.493C91.5516 34.9021 87.7758 39.7949 80.3174 39.7949H71.5538V15.0046ZM80.2242 37.0456C86.0511 37.0456 88.3818 33.3178 88.3818 27.493C88.3818 21.6682 86.2841 17.7073 80.4573 17.7073H74.677V37.0456H80.2242Z" fill="#000333"/>
<path d="M95.2342 15.0046H99.2431L107.307 35.6011H107.354L115.325 15.0046H119.381V39.7949H116.397V19.4315H116.351C116.351 19.4315 115.698 21.3886 115.232 22.5536L108.426 39.7949H106.049L99.2431 22.5536C98.7769 21.2954 98.1243 19.4315 98.1243 19.4315H98.0777V39.7949H95.2808V15.0046H95.2342Z" fill="#000333"/>
<path d="M29.6937 21.2022C28.2486 21.2022 27.0833 22.3672 27.0833 23.8117V29.4501C27.0833 33.2712 24.6593 35.7409 21.5361 38.863L21.1166 39.329L15.2431 44.5946C14.0311 43.7092 12.2131 42.3579 10.2553 40.7269C5.9201 37.1855 4.24197 34.0634 4.24197 29.6831V19.4781C4.24197 18.3131 3.30967 17.3346 2.09769 17.3346C0.932314 17.3346 -0.0465984 18.2665 -0.0465984 19.4781V29.6831C1.6436e-05 36.8127 3.77582 40.9133 7.50501 44.0354C10.9545 46.8779 14.0311 49.0214 14.1709 49.1146L15.5694 50.0466L24.0067 42.4977L24.5661 41.9385C27.8757 38.5834 31.3252 35.0885 31.3252 29.5433V21.2022H29.6937Z" fill="#00877B"/>
<path d="M8.43729 26.7008C9.13652 26.4213 9.83574 26.2815 10.4883 26.2815V17.1016C10.4883 15.9366 9.55605 14.9581 8.34406 14.9581C7.17869 14.9581 6.19978 15.89 6.19978 17.1016V28.2852C6.80577 27.5862 7.55161 27.0736 8.43729 26.7008Z" fill="#00877B"/>
<path d="M15.1964 28.7512H15.3363C15.7558 28.1454 16.2686 27.6328 16.8746 27.26V16.2628C16.8746 15.0979 15.9423 14.1193 14.7303 14.1193C13.5649 14.1193 12.586 15.0513 12.586 16.2628V26.7009C13.6115 27.0736 14.5438 27.7726 15.1964 28.7512Z" fill="#00877B"/>
<path d="M23.121 6.15098V2.14352C23.121 0.978565 22.1887 0 20.9767 0C19.8113 0 18.8324 0.931966 18.8324 2.14352V6.19758L20.9767 2.51631L23.121 6.15098Z" fill="#00877B"/>
<path d="M18.879 13.3737V26.3746C19.9045 26.1416 21.0233 26.2348 22.0954 26.7008C22.4684 26.8406 22.7947 27.027 23.121 27.26V13.3737C22.515 13.7931 21.7691 14.0261 20.9767 14.0261C20.1842 14.0261 19.485 13.7931 18.879 13.3737Z" fill="#00877B"/>
<path d="M23.96 8.48087L23.1676 7.08292L21.0233 3.40165L18.879 7.08292L18.0866 8.48087C17.4806 9.55263 17.4806 10.8108 18.0866 11.8359C18.3196 12.2087 18.5527 12.5349 18.879 12.7679C19.485 13.2339 20.2309 13.5135 21.0233 13.5135C21.8158 13.5135 22.5616 13.2339 23.1676 12.7679C23.4939 12.5349 23.7736 12.2087 23.96 11.8359C24.566 10.8108 24.566 9.55263 23.96 8.48087Z" fill="url(#paint0_radial)"/>
</g>
<defs>
<radialGradient id="paint0_radial" cx="0" cy="0" r="1" gradientUnits="userSpaceOnUse" gradientTransform="translate(21.0146 8.48823) scale(4.30922 4.30769)">
<stop offset="0.0957346" stop-color="#FF4C3E"/>
<stop offset="0.1882" stop-color="#FF3D31"/>
<stop offset="0.3819" stop-color="#FF221C"/>
<stop offset="0.58" stop-color="#FF0F0C"/>
<stop offset="0.7834" stop-color="#FF0403"/>
<stop offset="1" stop-color="#FF0000"/>
</radialGradient>
<clipPath id="clip0">
<rect width="210" height="50" fill="white"/>
</clipPath>
</defs>
</svg>
