<svg width="16" height="16" viewBox="0 0 16 16" fill="none" xmlns="http://www.w3.org/2000/svg">
<circle cx="8" cy="8" r="7" stroke="#D5D8DA"/>
<path d="M9.20117 10.9678L9.12793 11.2803C8.82845 11.4007 8.58919 11.4837 8.41016 11.5293C8.23112 11.5781 8.07812 11.6025 7.95117 11.6025C7.69076 11.6025 7.49544 11.5358 7.36523 11.4023C7.23503 11.2656 7.16992 11.098 7.16992 10.8994C7.16992 10.8245 7.17643 10.7464 7.18945 10.665C7.20247 10.5837 7.22363 10.4811 7.25293 10.3574L7.77051 8.28223C7.79655 8.16829 7.82096 8.04622 7.84375 7.91602C7.86979 7.78581 7.88281 7.67513 7.88281 7.58398C7.88281 7.40169 7.85189 7.28125 7.79004 7.22266C7.73145 7.16081 7.60938 7.12988 7.42383 7.12988C7.35221 7.12988 7.25618 7.14128 7.13574 7.16406C7.01855 7.18685 6.92904 7.20638 6.86719 7.22266L6.94043 6.91016C7.19434 6.79622 7.4222 6.71159 7.62402 6.65625C7.82585 6.60091 7.98535 6.57324 8.10254 6.57324C8.36947 6.57324 8.56315 6.63672 8.68359 6.76367C8.80404 6.89062 8.86426 7.06152 8.86426 7.27637C8.86426 7.33496 8.85775 7.41471 8.84473 7.51562C8.83171 7.61654 8.81217 7.71745 8.78613 7.81836L8.26367 9.89355C8.23112 10.0205 8.20182 10.1458 8.17578 10.2695C8.15299 10.39 8.1416 10.4893 8.1416 10.5674C8.1416 10.7529 8.18229 10.8799 8.26367 10.9482C8.34831 11.0166 8.4834 11.0508 8.66895 11.0508C8.73079 11.0508 8.81868 11.0426 8.93262 11.0264C9.0498 11.0101 9.13932 10.9906 9.20117 10.9678ZM9.54785 4.72754C9.54785 4.91309 9.48763 5.07585 9.36719 5.21582C9.24674 5.35254 9.09701 5.4209 8.91797 5.4209C8.75195 5.4209 8.60872 5.35579 8.48828 5.22559C8.36784 5.09212 8.30762 4.94076 8.30762 4.77148C8.30762 4.59245 8.36784 4.4362 8.48828 4.30273C8.60872 4.16927 8.75195 4.10254 8.91797 4.10254C9.10352 4.10254 9.25488 4.16602 9.37207 4.29297C9.48926 4.41667 9.54785 4.56152 9.54785 4.72754Z" fill="#676874"/>
</svg>
