<svg width="32" height="32" viewBox="0 0 32 32" fill="none" xmlns="http://www.w3.org/2000/svg">
<path d="M11.6965 20.4139C11.6965 21.1863 11.4758 21.8484 10.9241 22.2898C10.3724 22.7311 9.71033 22.9518 8.82757 22.9518H7.83447V25.4898H6.28964V17.7656H8.82757C9.71033 17.7656 10.4827 17.9863 10.9241 18.4277C11.3655 18.8691 11.6965 19.5311 11.6965 20.4139ZM10.1517 20.4139C10.1517 20.0829 10.0414 19.7518 9.82068 19.5311C9.59999 19.3105 9.26895 19.2001 8.82757 19.2001H7.83447V21.738H8.82757C9.26895 21.738 9.59999 21.6277 9.82068 21.407C10.0414 21.076 10.1517 20.7449 10.1517 20.4139Z" fill="white"/>
<path d="M19.531 21.6277C19.531 22.9518 19.2 23.8346 18.5379 24.4967C17.8759 25.1587 16.8828 25.4898 15.5586 25.4898H12.9103V17.7656H15.5586C16.7724 17.7656 17.6552 18.0967 18.4276 18.7587C19.2 19.5311 19.531 20.4139 19.531 21.6277ZM17.9862 21.6277C17.9862 20.8553 17.7655 20.3036 17.3241 19.8622C16.8828 19.4208 16.331 19.2001 15.5586 19.2001H14.2345V24.276H15.3379C17.2138 24.1656 17.9862 23.3932 17.9862 21.6277Z" fill="white"/>
<path d="M25.7103 17.7656V19.0898H22.4V20.8553H25.6V22.1794H22.4V25.4898H20.9655V17.7656H25.7103Z" fill="white"/>
<path d="M27.0345 16.8828H4.96551C4.63448 16.8828 4.41379 16.6621 4.41379 16.331V0.551724C4.41379 0.22069 4.63448 0 4.96551 0H18.2069C18.3172 0 18.5379 0.110345 18.6483 0.110345L27.4759 9.04828C27.5862 9.15862 27.5862 9.26897 27.5862 9.48966V16.331C27.5862 16.5517 27.3655 16.8828 27.0345 16.8828ZM5.51724 15.7793H26.4828V9.71035L17.9862 1.10345H5.51724V15.7793Z" fill="white"/>
<path d="M27.0345 32H4.96551C4.63448 32 4.41379 31.7793 4.41379 31.4483V27.0345C4.41379 26.7035 4.63448 26.4828 4.96551 26.4828H27.0345C27.3655 26.4828 27.5862 26.7035 27.5862 27.0345V31.4483C27.5862 31.7793 27.3655 32 27.0345 32ZM5.51724 30.8966H26.4828V27.5862H5.51724V30.8966Z" fill="white"/>
<path d="M27.0345 10.0414H18.2069C17.8759 10.0414 17.6552 9.82074 17.6552 9.48971V0.551776C17.6552 0.331087 17.7655 0.110397 17.9862 5.20274e-05C18.2069 -0.110293 18.4276 5.20311e-05 18.5379 0.110397L27.2552 8.93798C27.3655 9.04833 27.4759 9.15867 27.4759 9.37936C27.5862 9.82074 27.3655 10.0414 27.0345 10.0414ZM18.7586 8.93798H25.7104L18.7586 1.87591V8.93798Z" fill="white"/>
<path d="M31.4483 27.5863H0.551724C0.22069 27.5863 0 27.3656 0 27.0346V16.2208C0 15.8898 0.22069 15.6691 0.551724 15.6691H31.4483C31.7793 15.6691 32 15.8898 32 16.2208V27.0346C32 27.3656 31.7793 27.5863 31.4483 27.5863ZM1.10345 26.4829H30.8966V16.7725H1.10345V26.4829Z" fill="white"/>
</svg>
