<svg width="42" height="42" viewBox="0 0 42 42" fill="none" xmlns="http://www.w3.org/2000/svg">
<path d="M2.55316 20.9681C2.55316 11.0258 10.5318 2.86798 20.4253 2.54932V0C9.06371 0.318665 0 9.62367 0 20.9681C0 24.4734 0.893605 27.9788 2.61699 31.0379L4.78717 29.6995C3.3191 27.0228 2.55316 24.0273 2.55316 20.9681Z" fill="#E0E5E9"/>
<path d="M20.9998 39.4506C14.6807 39.4506 8.74466 36.2003 5.42555 30.8467L3.25537 32.1851C7.08511 38.2397 13.851 42 21.0636 42C28.2763 42 35.0422 38.2397 38.8719 32.1214L36.7017 30.783C33.255 36.1365 27.3827 39.4506 20.9998 39.4506Z" fill="#E0E5E9"/>
<path d="M39.5104 20.9681C39.5104 24.0273 38.7445 27.0228 37.2764 29.6995L39.4466 31.0379C41.1061 27.9788 41.9997 24.5372 41.9997 21.0319C42.0636 9.62367 32.9999 0.318665 21.7021 0V2.54932C31.5318 2.86798 39.5104 11.0258 39.5104 20.9681Z" fill="#66B7B0"/>
<path d="M18.6258 25.168C21.1738 25.168 22.1958 22.606 22.1958 20.338C22.1958 18.056 21.1738 15.522 18.6258 15.522C16.0638 15.522 15.0558 18.056 15.0558 20.338C15.0558 22.606 16.0638 25.168 18.6258 25.168ZM18.6258 24.132C16.8478 24.132 16.2458 22.2 16.2458 20.338C16.2458 18.476 16.8478 16.558 18.6258 16.558C20.4038 16.558 21.0058 18.476 21.0058 20.338C21.0058 22.2 20.4038 24.132 18.6258 24.132ZM26.5681 25V15.662H25.5461L23.2081 18.07L23.9081 18.784L25.4061 17.202V25H26.5681Z" fill="#ACADB8"/>
</svg>
